<svg id="svg" version="1.1" xmlns="http://www.w3.org/2000/svg" xmlns:xlink="http://www.w3.org/1999/xlink" width="400" height="400" viewBox="0, 0, 400,400"><g id="svgg"><path id="path0" d="M0.000 200.000 L 0.000 400.000 200.000 400.000 L 400.000 400.000 400.000 200.000 L 400.000 0.000 200.000 0.000 L 0.000 0.000 0.000 200.000 M206.521 24.241 C 208.167 24.607,210.571 25.549,212.135 26.441 C 213.639 27.298,214.930 28.000,215.004 28.000 C 215.077 28.000,216.695 28.900,218.600 30.000 C 220.505 31.100,222.131 32.000,222.214 32.000 C 222.297 32.000,223.318 32.565,224.482 33.256 C 225.647 33.947,227.140 34.817,227.800 35.191 C 229.725 36.280,245.970 45.351,248.600 46.805 C 249.920 47.535,253.070 49.296,255.600 50.717 C 267.597 57.459,282.226 65.661,285.000 67.201 C 286.320 67.933,289.470 69.694,292.000 71.114 C 294.530 72.533,298.220 74.595,300.200 75.695 C 302.180 76.796,304.970 78.370,306.400 79.194 C 307.830 80.017,310.080 81.285,311.400 82.011 C 316.294 84.703,330.277 92.538,332.521 93.847 C 333.798 94.591,334.909 95.200,334.990 95.200 C 335.071 95.200,336.679 96.091,338.564 97.179 C 340.449 98.268,343.388 99.915,345.096 100.839 C 346.803 101.763,348.678 102.852,349.262 103.260 C 349.846 103.667,350.443 104.000,350.588 104.000 C 351.403 104.000,354.085 106.373,356.299 109.052 C 361.069 114.826,361.656 117.962,361.383 136.200 C 361.267 143.900,360.995 179.163,360.779 214.562 L 360.385 278.924 359.425 281.685 C 358.175 285.278,355.643 289.125,353.109 291.279 C 350.362 293.615,350.573 293.481,343.800 297.198 C 340.500 299.009,336.855 301.011,335.700 301.646 C 332.660 303.317,329.764 304.897,326.800 306.503 C 324.151 307.937,305.035 318.391,301.400 320.393 C 300.300 320.999,298.230 322.125,296.800 322.897 C 295.370 323.668,289.340 326.954,283.400 330.198 C 277.460 333.443,271.475 336.705,270.100 337.449 C 268.725 338.192,266.385 339.457,264.900 340.260 C 263.415 341.064,259.500 343.199,256.200 345.005 C 252.900 346.811,248.760 349.065,247.000 350.013 C 245.240 350.960,243.260 352.036,242.600 352.403 C 241.940 352.769,239.780 353.936,237.800 354.995 C 235.820 356.054,233.030 357.585,231.600 358.398 C 230.170 359.211,227.200 360.827,225.000 361.988 C 222.800 363.149,220.820 364.229,220.600 364.388 C 220.380 364.547,218.446 365.608,216.301 366.746 C 214.157 367.884,211.585 369.271,210.585 369.829 C 207.098 371.776,204.126 372.514,199.600 372.559 C 192.782 372.626,191.550 372.160,178.000 364.401 C 176.570 363.583,172.070 361.057,168.000 358.789 C 163.930 356.521,160.015 354.336,159.300 353.933 C 158.585 353.530,157.415 352.870,156.700 352.466 C 155.985 352.063,152.970 350.375,150.000 348.717 C 144.604 345.703,132.999 339.199,129.600 337.283 C 127.609 336.160,114.904 329.054,106.200 324.194 C 103.120 322.474,100.015 320.737,99.300 320.334 C 98.585 319.930,97.415 319.270,96.700 318.866 C 95.985 318.463,90.630 315.463,84.800 312.200 C 78.970 308.937,73.570 305.912,72.800 305.477 C 72.030 305.043,70.590 304.240,69.600 303.694 C 68.610 303.148,67.260 302.385,66.600 301.999 C 65.940 301.614,64.410 300.754,63.200 300.088 C 40.283 287.491,37.995 284.413,38.592 267.000 C 38.721 263.260,39.005 228.083,39.224 188.829 L 39.622 117.458 40.589 114.676 C 42.806 108.302,46.618 104.310,54.600 100.006 C 56.360 99.057,61.760 96.123,66.600 93.487 C 78.354 87.085,79.534 86.439,81.400 85.394 C 82.280 84.901,84.170 83.868,85.600 83.097 C 87.030 82.327,92.880 79.134,98.600 76.004 C 104.320 72.873,110.170 69.677,111.600 68.903 C 113.030 68.128,115.100 67.002,116.200 66.400 C 117.300 65.798,119.460 64.628,121.000 63.801 C 122.540 62.973,125.330 61.443,127.200 60.401 C 129.070 59.359,131.770 57.883,133.200 57.121 C 134.630 56.359,140.750 53.030,146.800 49.723 C 152.850 46.417,158.970 43.081,160.400 42.310 C 161.830 41.539,167.950 38.211,174.000 34.914 C 194.986 23.479,194.286 23.774,200.721 23.654 C 202.328 23.625,204.938 23.888,206.521 24.241 " stroke="none" fill="#fbfbfb" fill-rule="evenodd"></path><path id="path1" d="M197.800 24.298 C 196.480 24.378,195.229 24.614,195.020 24.822 C 194.811 25.030,194.314 25.200,193.915 25.200 C 193.516 25.200,192.832 25.380,192.395 25.600 C 190.275 26.667,187.789 28.003,181.496 31.457 C 179.348 32.636,177.500 33.600,177.388 33.600 C 177.276 33.600,176.513 34.022,175.692 34.538 C 174.871 35.053,172.580 36.337,170.600 37.391 C 168.620 38.444,166.055 39.823,164.900 40.453 C 159.890 43.189,158.277 44.066,156.300 45.130 C 155.145 45.751,152.040 47.438,149.400 48.878 C 146.760 50.319,143.610 52.034,142.400 52.690 C 141.190 53.347,139.390 54.339,138.400 54.895 C 137.410 55.452,135.340 56.583,133.800 57.408 C 129.438 59.747,127.120 61.008,125.600 61.870 C 124.830 62.307,122.760 63.441,121.000 64.390 C 114.579 67.855,113.378 68.511,112.200 69.200 C 111.540 69.587,109.380 70.759,107.400 71.805 C 105.420 72.851,102.900 74.198,101.800 74.800 C 100.700 75.401,98.990 76.322,98.000 76.846 C 97.010 77.371,96.110 77.890,96.000 78.001 C 95.890 78.111,95.260 78.471,94.600 78.801 C 93.940 79.130,92.320 80.005,91.000 80.744 C 89.680 81.484,87.250 82.814,85.600 83.702 C 80.831 86.266,78.728 87.412,76.800 88.495 C 75.810 89.052,73.830 90.131,72.400 90.894 C 70.970 91.657,68.990 92.733,68.000 93.285 C 66.009 94.396,63.240 95.913,59.000 98.215 C 51.620 102.222,49.692 103.343,48.146 104.524 C 46.553 105.741,44.166 108.683,42.825 111.083 C 42.481 111.697,42.102 112.290,41.983 112.400 C 41.864 112.510,41.528 113.410,41.238 114.400 C 40.947 115.390,40.560 116.560,40.379 117.000 C 40.198 117.440,39.949 136.610,39.826 159.600 C 39.702 182.590,39.487 218.271,39.346 238.891 C 39.139 269.372,39.190 276.739,39.620 278.291 C 40.114 280.071,42.269 284.751,42.801 285.200 C 42.932 285.310,43.470 286.017,43.998 286.772 C 45.265 288.585,47.689 290.773,49.742 291.957 C 53.645 294.208,54.300 294.577,56.200 295.600 C 57.300 296.192,58.920 297.091,59.800 297.597 C 60.680 298.103,62.390 299.058,63.600 299.717 C 64.810 300.377,66.970 301.586,68.400 302.404 C 69.830 303.221,71.810 304.339,72.800 304.889 C 73.790 305.438,75.320 306.300,76.200 306.805 C 77.080 307.310,78.520 308.100,79.400 308.562 C 80.280 309.023,81.090 309.490,81.200 309.600 C 81.310 309.710,82.120 310.177,83.000 310.638 C 83.880 311.100,85.320 311.890,86.200 312.395 C 87.080 312.900,88.610 313.762,89.600 314.311 C 90.590 314.860,92.445 315.914,93.721 316.654 C 94.998 317.394,96.110 318.000,96.191 318.000 C 96.273 318.000,98.199 319.052,100.470 320.338 C 102.742 321.624,105.410 323.128,106.400 323.681 C 107.390 324.234,108.875 325.072,109.700 325.543 C 110.525 326.015,111.875 326.785,112.700 327.257 C 113.525 327.728,114.965 328.538,115.900 329.057 C 123.007 333.001,124.651 333.919,129.400 336.596 C 131.820 337.960,134.610 339.528,135.600 340.081 C 136.590 340.634,138.120 341.490,139.000 341.983 C 139.880 342.477,141.320 343.267,142.200 343.740 C 143.080 344.213,143.890 344.690,144.000 344.800 C 144.110 344.910,144.920 345.378,145.800 345.839 C 146.680 346.301,148.210 347.131,149.200 347.683 C 150.190 348.236,151.810 349.139,152.800 349.689 C 153.790 350.239,156.760 351.907,159.400 353.396 C 164.222 356.115,166.153 357.197,169.300 358.943 C 170.936 359.851,172.280 360.614,175.500 362.460 C 176.325 362.933,178.105 363.911,179.457 364.634 C 180.808 365.357,183.794 367.016,186.092 368.321 C 188.391 369.626,191.246 370.920,192.436 371.196 C 193.626 371.473,195.122 371.857,195.760 372.050 C 197.425 372.553,199.790 372.482,203.000 371.833 C 207.284 370.968,208.074 370.653,213.735 367.550 C 216.631 365.963,219.900 364.182,221.000 363.593 C 222.100 363.004,223.810 362.066,224.800 361.508 C 225.790 360.950,227.770 359.869,229.200 359.107 C 230.630 358.344,232.430 357.363,233.200 356.925 C 233.970 356.488,236.220 355.264,238.200 354.206 C 240.180 353.147,243.780 351.195,246.200 349.868 C 248.620 348.541,251.545 346.948,252.700 346.328 C 256.487 344.294,258.977 342.937,260.400 342.130 C 261.170 341.693,263.240 340.560,265.000 339.612 C 266.760 338.663,270.090 336.853,272.400 335.589 C 274.710 334.324,277.860 332.615,279.400 331.790 C 280.940 330.965,283.100 329.799,284.200 329.199 C 285.300 328.599,287.010 327.678,288.000 327.154 C 288.990 326.629,289.890 326.110,290.000 326.000 C 290.110 325.890,291.010 325.371,292.000 324.846 C 292.990 324.322,294.700 323.401,295.800 322.801 C 296.900 322.200,299.240 320.938,301.000 319.996 C 302.760 319.054,305.820 317.385,307.800 316.286 C 309.780 315.188,312.570 313.659,314.000 312.890 C 315.430 312.120,317.545 310.975,318.700 310.345 C 319.855 309.715,321.745 308.692,322.900 308.070 C 324.055 307.449,327.790 305.401,331.200 303.520 C 334.610 301.638,338.750 299.383,340.400 298.509 C 342.050 297.636,344.120 296.506,345.000 295.999 C 345.880 295.492,347.316 294.700,348.190 294.238 C 352.965 291.721,359.231 283.952,359.206 280.580 C 359.203 280.129,359.361 279.589,359.557 279.380 C 359.758 279.166,360.021 262.191,360.158 240.600 C 360.922 120.036,360.923 119.588,360.402 117.870 C 359.098 113.570,355.635 108.116,353.071 106.326 C 352.372 105.838,351.710 105.327,351.600 105.190 C 351.490 105.053,347.980 103.042,343.800 100.720 C 336.424 96.624,334.853 95.744,331.700 93.943 C 330.875 93.472,329.390 92.640,328.400 92.094 C 327.410 91.548,326.060 90.785,325.400 90.399 C 324.740 90.014,323.120 89.108,321.800 88.387 C 320.480 87.667,317.420 85.961,315.000 84.596 C 312.580 83.232,309.790 81.665,308.800 81.114 C 307.810 80.564,306.280 79.700,305.400 79.195 C 304.520 78.690,302.900 77.792,301.800 77.200 C 300.700 76.608,299.080 75.710,298.200 75.205 C 297.320 74.700,295.790 73.840,294.800 73.294 C 293.810 72.748,292.460 71.986,291.800 71.600 C 291.140 71.214,289.790 70.454,288.800 69.910 C 287.810 69.366,284.750 67.662,282.000 66.122 C 279.250 64.583,276.190 62.871,275.200 62.318 C 274.210 61.765,272.725 60.928,271.900 60.457 C 269.546 59.112,267.536 57.993,265.800 57.060 C 264.920 56.587,264.110 56.110,264.000 56.000 C 263.890 55.890,262.810 55.280,261.600 54.645 C 260.390 54.009,256.790 52.012,253.600 50.207 C 245.351 45.538,244.000 44.783,242.200 43.839 C 241.320 43.378,240.510 42.910,240.400 42.799 C 240.290 42.689,239.660 42.329,239.000 42.000 C 238.340 41.671,237.710 41.311,237.600 41.201 C 237.490 41.090,236.500 40.527,235.400 39.949 C 234.300 39.370,229.170 36.512,224.000 33.596 C 207.298 24.177,206.195 23.786,197.800 24.298 M292.971 159.002 C 308.804 163.173,313.714 180.999,301.981 191.708 L 299.152 194.290 300.035 195.845 C 300.521 196.700,301.417 198.300,302.028 199.400 C 302.638 200.500,304.215 203.290,305.532 205.600 C 308.376 210.588,308.714 210.066,301.800 211.373 C 298.720 211.955,295.549 212.604,294.754 212.815 C 292.492 213.417,290.923 213.297,290.614 212.500 C 289.826 210.464,287.569 204.269,286.789 202.000 C 285.130 197.171,285.058 197.090,282.672 197.412 C 281.533 197.565,280.552 197.733,280.494 197.785 C 280.400 197.868,279.627 210.702,279.608 212.500 C 279.601 213.144,278.939 213.200,271.370 213.200 L 263.141 213.200 263.386 204.900 C 263.521 200.335,263.804 188.777,264.015 179.215 C 264.301 166.248,264.525 161.704,264.899 161.334 C 267.474 158.784,286.229 157.226,292.971 159.002 M128.667 164.800 C 129.237 171.869,129.325 190.027,128.808 193.600 C 126.388 210.307,112.440 218.741,96.827 212.937 C 90.900 210.734,90.233 209.789,91.169 204.920 C 91.372 203.864,91.758 201.290,92.027 199.200 C 92.690 194.045,92.900 193.676,94.438 194.970 C 99.654 199.360,107.530 199.574,110.353 195.404 C 112.601 192.082,112.971 184.272,111.583 169.416 C 111.011 163.287,110.893 160.547,111.188 160.252 C 111.597 159.843,123.362 158.850,126.600 158.950 L 128.200 159.000 128.667 164.800 M163.350 160.041 C 168.598 161.250,168.951 161.537,168.649 164.340 C 168.515 165.583,168.240 168.490,168.037 170.800 C 167.728 174.331,167.286 177.209,167.057 177.197 C 167.025 177.195,165.830 176.826,164.400 176.377 C 157.416 174.185,148.800 175.220,148.800 178.252 C 148.800 179.887,150.541 180.400,156.086 180.400 C 165.537 180.400,169.984 183.606,171.586 191.574 C 172.313 195.188,171.268 201.542,169.532 204.062 C 169.129 204.646,168.800 205.292,168.800 205.498 C 168.800 206.254,163.742 210.647,161.800 211.579 C 153.760 215.437,146.572 215.310,135.800 211.122 C 131.570 209.477,131.779 209.828,132.346 205.308 C 133.494 196.172,133.692 194.800,133.861 194.800 C 133.959 194.800,134.526 195.049,135.120 195.354 C 142.017 198.892,153.213 199.509,154.199 196.404 C 154.860 194.319,152.555 192.807,148.692 192.792 C 138.024 192.751,132.000 187.479,132.000 178.183 C 132.000 164.413,146.332 156.119,163.350 160.041 M73.649 160.815 C 84.648 164.090,90.481 171.990,90.475 183.600 C 90.466 198.819,81.893 208.728,65.489 212.479 C 61.837 213.314,48.088 213.821,47.412 213.145 C 47.140 212.873,47.817 175.129,48.240 166.947 L 48.491 162.094 50.945 161.453 C 58.506 159.480,68.247 159.206,73.649 160.815 M208.283 160.971 C 209.428 161.328,210.437 161.751,210.523 161.910 C 210.643 162.130,209.390 177.599,209.232 177.852 C 209.214 177.880,208.392 177.731,207.404 177.520 C 201.283 176.215,193.482 180.096,191.950 185.209 C 188.911 195.352,198.437 200.495,209.659 194.770 C 211.756 193.700,211.620 193.002,211.210 202.772 C 210.817 212.149,210.930 211.801,207.922 212.870 C 189.289 219.489,173.147 208.363,173.166 188.916 C 173.180 174.073,181.587 162.678,194.200 160.404 C 197.217 159.860,205.837 160.207,208.283 160.971 M241.400 160.791 C 247.386 162.123,250.457 163.664,253.927 167.078 C 263.415 176.414,263.043 193.804,253.148 203.534 C 245.703 210.854,232.516 212.121,223.564 206.377 C 215.418 201.150,210.919 190.298,212.958 180.800 C 215.950 166.869,228.628 157.949,241.400 160.791 M337.000 161.349 C 348.376 164.561,353.806 171.820,353.795 183.800 C 353.780 200.463,343.383 210.462,324.000 212.455 C 319.391 212.929,311.362 212.755,310.866 212.170 C 310.438 211.664,311.504 164.413,311.967 163.350 C 312.178 162.866,312.824 162.416,313.469 162.304 C 314.091 162.197,315.950 161.822,317.600 161.472 C 323.115 160.301,333.065 160.238,337.000 161.349 M281.459 171.900 C 281.351 172.285,281.204 175.480,281.132 179.000 L 281.000 185.400 283.366 185.317 C 293.195 184.971,293.977 171.200,284.168 171.200 C 282.115 171.200,281.618 171.328,281.459 171.900 M66.232 176.700 C 66.105 177.305,65.813 180.860,65.582 184.600 C 65.352 188.340,65.058 193.065,64.928 195.100 C 64.659 199.293,64.791 199.435,67.680 198.090 C 76.031 194.200,77.615 180.425,70.169 176.435 C 67.912 175.225,66.523 175.318,66.232 176.700 M329.877 176.676 C 329.559 177.190,328.312 195.093,328.470 196.865 L 328.600 198.317 330.657 197.546 C 337.133 195.121,340.180 187.837,337.488 181.217 C 336.220 178.099,330.943 174.951,329.877 176.676 M233.121 178.016 C 227.083 181.206,227.992 191.746,234.504 194.035 C 238.179 195.327,242.671 192.277,243.586 187.868 C 245.110 180.526,239.094 174.862,233.121 178.016 " stroke="none" fill="#343434" fill-rule="evenodd"></path><path id="path2" d="M39.693 118.400 C 39.693 119.170,39.775 119.485,39.876 119.100 C 39.976 118.715,39.976 118.085,39.876 117.700 C 39.775 117.315,39.693 117.630,39.693 118.400 M361.357 126.400 C 361.357 129.370,361.420 130.585,361.497 129.100 C 361.574 127.615,361.574 125.185,361.497 123.700 C 361.420 122.215,361.357 123.430,361.357 126.400 M39.379 162.200 C 39.379 169.460,39.433 172.486,39.499 168.925 C 39.565 165.364,39.566 159.424,39.499 155.725 C 39.433 152.026,39.379 154.940,39.379 162.200 M360.981 171.400 C 360.981 179.760,361.034 183.237,361.099 179.126 C 361.164 175.016,361.164 168.176,361.100 163.926 C 361.035 159.677,360.982 163.040,360.981 171.400 M277.000 158.421 C 272.913 158.841,265.651 160.589,264.899 161.334 C 264.525 161.704,264.301 166.248,264.015 179.215 C 263.804 188.777,263.521 200.335,263.386 204.900 L 263.141 213.200 271.370 213.200 C 278.939 213.200,279.601 213.144,279.608 212.500 C 279.627 210.702,280.400 197.868,280.494 197.785 C 280.552 197.733,281.533 197.565,282.672 197.412 C 285.058 197.090,285.130 197.171,286.789 202.000 C 287.569 204.269,289.826 210.464,290.614 212.500 C 290.923 213.297,292.492 213.417,294.754 212.815 C 295.549 212.604,298.720 211.955,301.800 211.373 C 308.714 210.066,308.376 210.588,305.532 205.600 C 304.215 203.290,302.638 200.500,302.028 199.400 C 301.417 198.300,300.521 196.700,300.035 195.845 L 299.152 194.290 301.981 191.708 C 306.713 187.389,308.171 183.983,308.106 177.400 C 307.966 163.385,296.539 156.413,277.000 158.421 M60.800 159.848 C 57.744 160.061,53.849 160.696,50.945 161.453 L 48.491 162.094 48.240 166.947 C 47.817 175.129,47.140 212.873,47.412 213.145 C 48.088 213.821,61.837 213.314,65.489 212.479 C 81.893 208.728,90.466 198.819,90.475 183.600 C 90.484 167.633,79.159 158.569,60.800 159.848 M194.200 160.404 C 181.587 162.678,173.180 174.073,173.166 188.916 C 173.147 208.363,189.289 219.489,207.922 212.870 C 210.930 211.801,210.817 212.149,211.210 202.772 C 211.620 193.002,211.756 193.700,209.659 194.770 C 198.437 200.495,188.911 195.352,191.950 185.209 C 193.482 180.096,201.283 176.215,207.404 177.520 C 208.392 177.731,209.214 177.880,209.232 177.852 C 209.390 177.599,210.643 162.130,210.523 161.910 C 209.809 160.600,198.765 159.581,194.200 160.404 M231.800 160.808 C 217.735 163.624,208.685 180.583,213.981 194.200 C 222.091 215.051,250.715 215.433,258.911 194.800 C 260.983 189.582,261.316 182.306,259.734 176.813 C 256.828 166.722,247.839 160.369,236.600 160.461 C 234.840 160.476,232.680 160.632,231.800 160.808 M322.200 160.657 C 321.320 160.755,319.250 161.122,317.600 161.472 C 315.950 161.822,314.091 162.197,313.469 162.304 C 312.824 162.416,312.178 162.866,311.967 163.350 C 311.504 164.413,310.438 211.664,310.866 212.170 C 311.362 212.755,319.391 212.929,324.000 212.455 C 343.383 210.462,353.780 200.463,353.795 183.800 C 353.810 167.298,341.775 158.482,322.200 160.657 M288.019 172.101 C 294.033 176.154,290.900 185.052,283.366 185.317 L 281.000 185.400 281.132 179.000 C 281.204 175.480,281.351 172.285,281.459 171.900 C 281.772 170.778,286.259 170.915,288.019 172.101 M70.169 176.435 C 77.615 180.425,76.031 194.200,67.680 198.090 C 64.791 199.435,64.659 199.293,64.928 195.100 C 65.058 193.065,65.352 188.340,65.582 184.600 C 66.194 174.656,66.346 174.386,70.169 176.435 M334.966 177.888 C 341.382 182.390,338.722 194.527,330.657 197.546 L 328.600 198.317 328.470 196.865 C 328.312 195.093,329.559 177.190,329.877 176.676 C 330.291 176.006,333.308 176.724,334.966 177.888 M239.560 177.780 C 246.020 181.120,244.887 192.264,237.904 194.073 C 229.621 196.218,225.412 182.088,233.121 178.016 C 234.892 177.081,237.990 176.967,239.560 177.780 M38.978 236.400 C 38.978 243.330,39.033 246.165,39.099 242.700 C 39.166 239.235,39.166 233.565,39.099 230.100 C 39.033 226.635,38.978 229.470,38.978 236.400 M360.578 239.600 C 360.578 246.310,360.632 249.055,360.699 245.700 C 360.766 242.345,360.766 236.855,360.699 233.500 C 360.632 230.145,360.578 232.890,360.578 239.600 M38.544 271.200 C 38.544 273.290,38.612 274.145,38.694 273.100 C 38.776 272.055,38.776 270.345,38.694 269.300 C 38.612 268.255,38.544 269.110,38.544 271.200 " stroke="none" fill="#5b63f2" fill-rule="evenodd"></path><path id="path3" d="M197.600 23.979 C 196.765 24.142,198.055 24.252,200.800 24.251 C 203.406 24.251,204.880 24.130,204.200 23.972 C 202.679 23.620,199.418 23.624,197.600 23.979 M193.800 24.800 C 193.029 25.131,193.031 25.145,193.876 25.172 C 194.358 25.187,194.864 25.020,195.000 24.800 C 195.292 24.327,194.901 24.327,193.800 24.800 M206.800 24.794 C 207.130 25.011,207.697 25.191,208.059 25.194 C 208.422 25.197,209.753 25.744,211.017 26.409 C 212.281 27.074,213.383 27.551,213.465 27.469 C 213.748 27.185,208.997 24.903,207.600 24.653 C 206.613 24.475,206.377 24.517,206.800 24.794 M183.917 29.697 C 180.241 31.716,177.294 33.427,177.367 33.501 C 177.441 33.574,179.979 32.277,183.008 30.617 C 186.036 28.958,188.624 27.596,188.757 27.591 C 188.891 27.586,189.450 27.230,190.000 26.800 C 191.660 25.501,190.885 25.871,183.917 29.697 M215.200 28.531 C 215.200 28.641,218.035 30.302,221.500 32.222 C 224.965 34.142,228.565 36.155,229.500 36.695 C 230.435 37.234,231.200 37.581,231.200 37.466 C 231.200 37.280,226.055 34.322,217.900 29.821 C 216.415 29.002,215.200 28.421,215.200 28.531 M174.800 34.641 C 173.810 35.194,172.308 36.009,171.461 36.451 C 170.615 36.894,170.004 37.337,170.103 37.436 C 170.296 37.629,176.800 34.074,176.800 33.776 C 176.800 33.525,176.787 33.531,174.800 34.641 M231.600 37.766 C 231.600 38.035,235.307 40.027,235.482 39.852 C 235.570 39.764,234.800 39.221,233.770 38.646 C 231.863 37.580,231.600 37.473,231.600 37.766 M165.861 39.446 C 164.794 40.001,164.008 40.542,164.114 40.647 C 164.311 40.844,167.100 39.411,167.780 38.762 C 168.360 38.209,167.975 38.346,165.861 39.446 M161.500 41.877 C 160.456 42.458,159.669 43.003,159.753 43.087 C 159.921 43.254,162.773 41.741,163.380 41.162 C 163.999 40.572,163.513 40.757,161.500 41.877 M240.403 42.677 C 240.406 43.006,242.445 44.088,242.659 43.875 C 242.723 43.811,242.241 43.442,241.588 43.056 C 240.934 42.670,240.401 42.500,240.403 42.677 M157.100 44.277 C 156.056 44.858,155.269 45.403,155.353 45.487 C 155.521 45.654,158.373 44.141,158.980 43.562 C 159.599 42.972,159.113 43.157,157.100 44.277 M244.000 44.767 C 244.963 45.552,245.600 45.808,245.600 45.410 C 245.600 45.306,245.015 44.935,244.300 44.586 L 243.000 43.952 244.000 44.767 M152.983 46.535 C 151.612 47.319,144.231 51.271,141.866 52.487 C 141.462 52.695,141.209 52.942,141.304 53.037 C 141.482 53.215,153.910 46.589,154.580 45.958 C 155.203 45.371,154.697 45.554,152.983 46.535 M246.000 45.734 C 246.000 45.873,250.428 48.451,254.500 50.683 C 254.665 50.773,254.800 50.766,254.800 50.666 C 254.800 50.527,250.372 47.949,246.300 45.717 C 246.135 45.627,246.000 45.634,246.000 45.734 M255.200 50.932 C 255.200 51.042,256.415 51.808,257.900 52.635 C 259.385 53.462,261.206 54.476,261.947 54.889 C 262.688 55.302,263.362 55.571,263.445 55.489 C 263.528 55.406,261.846 54.362,259.707 53.169 C 255.297 50.708,255.200 50.660,255.200 50.932 M139.500 53.829 C 138.895 54.157,138.400 54.510,138.400 54.613 C 138.400 54.999,139.032 54.757,140.000 54.000 C 141.189 53.070,141.011 53.009,139.500 53.829 M135.090 56.268 C 133.600 57.063,132.452 57.785,132.538 57.872 C 132.705 58.039,137.131 55.737,137.780 55.146 C 138.436 54.548,137.882 54.779,135.090 56.268 M265.200 56.566 C 265.200 56.835,268.907 58.827,269.082 58.652 C 269.170 58.564,268.400 58.021,267.370 57.446 C 265.463 56.380,265.200 56.273,265.200 56.566 M129.900 59.077 C 128.856 59.658,128.069 60.203,128.153 60.287 C 128.321 60.454,131.173 58.941,131.780 58.362 C 132.399 57.772,131.913 57.957,129.900 59.077 M270.400 59.567 C 271.363 60.352,272.000 60.608,272.000 60.210 C 272.000 60.106,271.415 59.735,270.700 59.386 L 269.400 58.752 270.400 59.567 M124.800 61.847 C 123.370 62.631,120.850 64.000,119.200 64.889 C 116.052 66.584,115.156 67.200,115.840 67.200 C 116.060 67.200,116.411 67.045,116.620 66.856 C 116.829 66.666,118.620 65.647,120.600 64.591 C 125.884 61.771,126.958 61.164,127.380 60.762 C 128.026 60.146,127.495 60.369,124.800 61.847 M272.600 60.704 C 272.820 60.935,273.630 61.470,274.400 61.893 C 275.170 62.316,277.015 63.338,278.500 64.165 C 279.985 64.992,281.200 65.582,281.200 65.477 C 281.200 65.371,279.355 64.249,277.100 62.983 C 272.068 60.159,272.095 60.172,272.600 60.704 M281.665 65.777 C 282.141 66.291,288.130 69.603,288.292 69.441 C 288.379 69.354,287.048 68.500,285.334 67.542 C 282.030 65.696,281.236 65.313,281.665 65.777 M110.686 69.501 C 108.534 70.713,106.840 71.773,106.922 71.856 C 107.094 72.027,115.200 67.639,115.200 67.374 C 115.200 67.021,114.514 67.343,110.686 69.501 M288.800 69.755 C 288.800 69.910,290.349 70.811,295.600 73.712 C 296.370 74.137,297.229 74.672,297.510 74.900 C 297.790 75.128,298.117 75.216,298.236 75.097 C 298.355 74.978,296.866 73.988,294.926 72.898 C 290.447 70.379,288.800 69.534,288.800 69.755 M103.500 73.429 C 102.895 73.757,102.400 74.110,102.400 74.213 C 102.400 74.599,103.032 74.357,104.000 73.600 C 105.189 72.670,105.011 72.609,103.500 73.429 M99.100 75.829 C 98.495 76.157,98.000 76.510,98.000 76.613 C 98.000 76.999,98.632 76.757,99.600 76.000 C 100.789 75.070,100.611 75.009,99.100 75.829 M299.000 75.506 C 299.568 76.101,302.463 77.670,302.649 77.484 C 302.734 77.399,301.858 76.825,300.702 76.209 C 299.546 75.592,298.780 75.276,299.000 75.506 M94.600 78.437 C 93.940 78.895,93.670 79.164,94.000 79.035 C 94.330 78.906,94.915 78.689,95.300 78.554 C 95.685 78.418,96.000 78.148,96.000 77.953 C 96.000 77.476,95.972 77.486,94.600 78.437 M304.000 78.364 C 304.550 78.814,305.180 79.183,305.400 79.185 C 305.828 79.188,305.105 78.634,303.800 77.960 C 303.269 77.685,303.336 77.821,304.000 78.364 M91.500 80.027 C 90.675 80.463,90.000 80.908,90.000 81.018 C 90.000 81.127,90.720 80.849,91.600 80.400 C 92.480 79.951,93.200 79.497,93.200 79.392 C 93.200 79.130,93.197 79.131,91.500 80.027 M306.200 79.504 C 306.420 79.735,307.230 80.270,308.000 80.693 C 308.770 81.116,310.615 82.138,312.100 82.965 C 313.585 83.792,314.800 84.382,314.800 84.277 C 314.800 84.171,312.955 83.049,310.700 81.783 C 305.668 78.959,305.695 78.972,306.200 79.504 M88.580 81.548 C 88.371 81.739,86.760 82.663,85.000 83.600 C 83.240 84.537,81.620 85.487,81.400 85.710 C 80.915 86.202,88.841 82.087,89.380 81.567 C 89.875 81.089,89.101 81.071,88.580 81.548 M315.200 84.524 C 315.200 84.815,321.700 88.434,321.886 88.247 C 321.976 88.157,320.648 87.300,318.934 86.342 C 315.357 84.343,315.200 84.266,315.200 84.524 M77.900 87.429 C 77.295 87.757,76.800 88.110,76.800 88.213 C 76.800 88.599,77.432 88.357,78.400 87.600 C 79.589 86.670,79.411 86.609,77.900 87.429 M73.490 89.868 C 72.000 90.663,70.852 91.385,70.938 91.472 C 71.105 91.639,75.531 89.337,76.180 88.746 C 76.836 88.148,76.282 88.379,73.490 89.868 M322.400 88.579 C 322.400 88.689,322.940 89.059,323.600 89.400 C 324.260 89.741,324.800 89.931,324.800 89.821 C 324.800 89.711,324.260 89.341,323.600 89.000 C 322.940 88.659,322.400 88.469,322.400 88.579 M325.200 90.159 C 325.200 90.451,328.910 92.423,329.101 92.233 C 329.199 92.134,328.362 91.589,327.240 91.020 C 326.118 90.452,325.200 90.064,325.200 90.159 M69.100 92.229 C 68.495 92.557,68.000 92.910,68.000 93.013 C 68.000 93.399,68.632 93.157,69.600 92.400 C 70.789 91.470,70.611 91.409,69.100 92.229 M330.400 93.167 C 331.363 93.952,332.000 94.208,332.000 93.810 C 332.000 93.706,331.415 93.335,330.700 92.986 L 329.400 92.352 330.400 93.167 M63.294 95.462 C 61.036 96.705,59.276 97.810,59.384 97.918 C 59.492 98.026,59.810 97.934,60.090 97.713 C 60.371 97.492,62.040 96.543,63.800 95.604 C 66.715 94.048,68.054 93.197,67.580 93.202 C 67.481 93.203,65.552 94.220,63.294 95.462 M333.200 94.764 C 333.750 95.214,334.311 95.586,334.446 95.591 C 334.581 95.596,337.101 96.969,340.046 98.642 C 346.117 102.092,348.400 103.294,348.400 103.043 C 348.400 102.883,346.591 101.834,341.400 98.987 C 340.300 98.384,338.230 97.219,336.800 96.400 C 335.370 95.580,333.750 94.692,333.200 94.428 L 332.200 93.946 333.200 94.764 M57.100 98.827 C 56.275 99.263,55.600 99.708,55.600 99.818 C 55.600 99.927,56.320 99.649,57.200 99.200 C 58.080 98.751,58.800 98.297,58.800 98.192 C 58.800 97.930,58.797 97.931,57.100 98.827 M52.285 101.376 C 51.011 102.082,49.661 102.989,49.285 103.392 C 48.706 104.011,48.786 103.999,49.800 103.314 C 50.460 102.868,51.945 102.026,53.100 101.445 C 54.255 100.863,55.200 100.300,55.200 100.193 C 55.200 99.845,54.632 100.075,52.285 101.376 M348.800 103.379 C 348.800 103.489,349.340 103.859,350.000 104.200 C 350.660 104.541,351.200 104.731,351.200 104.621 C 351.200 104.511,350.660 104.141,350.000 103.800 C 349.340 103.459,348.800 103.269,348.800 103.379 M351.605 105.073 C 351.608 105.253,352.196 105.779,352.912 106.243 C 353.629 106.707,355.012 108.147,355.986 109.443 C 358.130 112.296,358.801 113.015,357.812 111.400 C 356.064 108.548,351.588 103.985,351.605 105.073 M44.728 107.559 C 43.185 109.362,41.395 112.400,41.877 112.400 C 42.057 112.400,42.427 111.905,42.698 111.300 C 42.970 110.695,43.911 109.255,44.790 108.100 C 46.667 105.633,46.633 105.334,44.728 107.559 M40.446 115.467 C 40.421 115.724,40.284 116.264,40.141 116.667 C 39.940 117.236,39.994 117.297,40.379 116.942 C 40.652 116.691,40.789 116.151,40.684 115.742 C 40.579 115.334,40.472 115.210,40.446 115.467 M360.034 116.600 C 360.022 117.040,360.187 117.670,360.400 118.000 C 360.914 118.795,360.914 117.796,360.400 116.600 L 360.056 115.800 360.034 116.600 M360.985 137.800 C 360.985 148.140,361.036 152.427,361.100 147.328 C 361.163 142.228,361.163 133.768,361.100 128.528 C 361.037 123.287,360.985 127.460,360.985 137.800 M39.470 167.537 C 39.288 194.012,39.222 215.755,39.321 215.855 C 39.609 216.143,40.066 156.819,39.926 137.200 C 39.845 125.685,39.683 136.396,39.470 167.537 M118.305 159.365 C 114.623 159.621,111.420 160.020,111.188 160.252 C 110.893 160.547,111.011 163.287,111.583 169.416 C 112.971 184.272,112.601 192.082,110.353 195.404 C 107.530 199.574,99.654 199.360,94.438 194.970 C 92.900 193.676,92.690 194.045,92.027 199.200 C 91.758 201.290,91.372 203.864,91.169 204.920 C 90.233 209.789,90.900 210.734,96.827 212.937 C 112.440 218.741,126.388 210.307,128.808 193.600 C 129.325 190.027,129.237 171.869,128.667 164.800 L 128.200 159.000 126.600 158.950 C 125.720 158.923,121.987 159.110,118.305 159.365 M146.874 159.979 C 134.797 163.431,128.777 175.065,133.693 185.450 C 135.951 190.220,141.146 192.763,148.692 192.792 C 152.555 192.807,154.860 194.319,154.199 196.404 C 153.213 199.509,142.017 198.892,135.120 195.354 C 134.526 195.049,133.959 194.800,133.861 194.800 C 133.692 194.800,133.494 196.172,132.346 205.308 C 131.779 209.828,131.570 209.477,135.800 211.122 C 146.572 215.310,153.760 215.437,161.800 211.579 C 163.742 210.647,168.800 206.254,168.800 205.498 C 168.800 205.292,169.129 204.646,169.532 204.062 C 171.268 201.542,172.313 195.188,171.586 191.574 C 169.984 183.606,165.537 180.400,156.086 180.400 C 150.541 180.400,148.800 179.887,148.800 178.252 C 148.800 175.220,157.416 174.185,164.400 176.377 C 165.830 176.826,167.025 177.195,167.057 177.197 C 167.286 177.209,167.728 174.331,168.037 170.800 C 168.240 168.490,168.515 165.583,168.649 164.340 C 168.872 162.265,168.815 162.030,167.946 161.480 C 164.577 159.349,152.170 158.465,146.874 159.979 M360.300 209.200 C 360.136 221.630,360.030 242.240,360.066 255.000 C 360.131 277.983,360.135 277.867,360.460 242.600 C 360.641 223.020,360.747 202.410,360.695 196.800 C 360.631 189.901,360.503 193.914,360.300 209.200 M38.980 262.600 C 38.980 270.300,39.034 273.393,39.099 269.474 C 39.165 265.555,39.165 259.255,39.099 255.474 C 39.034 251.693,38.980 254.900,38.980 262.600 M39.256 278.000 C 39.256 278.330,39.411 278.960,39.600 279.400 C 39.817 279.904,39.944 279.978,39.944 279.600 C 39.944 279.270,39.789 278.640,39.600 278.200 C 39.383 277.696,39.256 277.622,39.256 278.000 M359.467 279.467 C 359.320 279.613,359.211 280.108,359.225 280.567 C 359.249 281.333,359.282 281.323,359.634 280.442 C 360.026 279.463,359.944 278.989,359.467 279.467 M40.000 280.613 C 40.000 282.109,44.075 287.933,46.509 289.916 L 48.200 291.294 46.550 289.679 C 45.643 288.792,44.482 287.466,43.970 286.733 C 43.458 286.000,42.926 285.310,42.787 285.200 C 42.649 285.090,42.034 283.965,41.421 282.700 C 40.412 280.618,40.000 280.013,40.000 280.613 M357.538 284.677 C 356.251 287.253,352.313 291.820,350.603 292.720 C 350.165 292.951,349.921 293.255,350.062 293.395 C 350.906 294.240,357.492 286.439,358.768 283.084 C 359.496 281.171,358.915 281.923,357.538 284.677 M49.600 292.190 C 49.600 292.294,50.185 292.665,50.900 293.014 L 52.200 293.648 51.200 292.833 C 50.237 292.048,49.600 291.792,49.600 292.190 M347.600 294.465 C 345.569 295.638,345.119 296.233,347.000 295.259 C 349.014 294.217,349.916 293.606,349.400 293.635 C 349.180 293.647,348.370 294.021,347.600 294.465 M56.800 296.190 C 56.800 296.294,57.385 296.665,58.100 297.014 L 59.400 297.648 58.400 296.833 C 57.437 296.048,56.800 295.792,56.800 296.190 M59.600 297.790 C 59.600 297.894,60.185 298.265,60.900 298.614 L 62.200 299.248 61.200 298.433 C 60.237 297.648,59.600 297.392,59.600 297.790 M335.480 301.091 C 332.884 302.522,330.826 303.760,330.908 303.842 C 331.075 304.008,340.800 298.818,340.800 298.562 C 340.800 298.216,340.042 298.576,335.480 301.091 M64.800 300.767 C 65.350 301.215,65.921 301.586,66.068 301.591 C 66.216 301.596,67.926 302.518,69.868 303.641 C 71.811 304.763,73.940 305.944,74.600 306.265 L 75.800 306.848 74.800 306.033 C 74.250 305.585,73.679 305.214,73.532 305.209 C 73.384 305.204,71.674 304.282,69.732 303.159 C 67.789 302.037,65.660 300.856,65.000 300.535 L 63.800 299.952 64.800 300.767 M327.519 305.523 C 326.044 306.351,324.694 307.188,324.519 307.382 C 324.147 307.794,329.615 304.862,330.180 304.346 C 330.871 303.716,330.230 303.999,327.519 305.523 M76.400 307.220 C 77.787 308.161,78.578 308.435,77.600 307.636 C 77.050 307.186,76.420 306.817,76.200 306.815 C 75.980 306.813,76.070 306.996,76.400 307.220 M79.200 308.783 C 80.406 309.675,81.200 310.024,81.200 309.661 C 81.200 309.459,80.885 309.182,80.500 309.046 C 80.115 308.911,79.530 308.696,79.200 308.569 C 78.667 308.365,78.667 308.388,79.200 308.783 M320.800 309.233 L 319.800 310.048 321.100 309.414 C 321.815 309.065,322.400 308.694,322.400 308.590 C 322.400 308.192,321.763 308.448,320.800 309.233 M83.200 310.990 C 83.200 311.094,83.785 311.465,84.500 311.814 L 85.800 312.448 84.800 311.633 C 83.837 310.848,83.200 310.592,83.200 310.990 M316.400 311.633 L 315.400 312.448 316.700 311.814 C 317.415 311.465,318.000 311.094,318.000 310.990 C 318.000 310.592,317.363 310.848,316.400 311.633 M86.000 312.590 C 86.000 312.694,86.585 313.065,87.300 313.414 L 88.600 314.048 87.600 313.233 C 86.637 312.448,86.000 312.192,86.000 312.590 M311.276 314.283 C 310.328 314.835,309.626 315.359,309.716 315.449 C 309.892 315.626,313.600 313.638,313.600 313.366 C 313.600 313.046,312.985 313.289,311.276 314.283 M91.200 315.567 C 92.163 316.352,92.800 316.608,92.800 316.210 C 92.800 316.106,92.215 315.735,91.500 315.386 L 90.200 314.752 91.200 315.567 M307.061 316.646 C 305.994 317.201,305.202 317.735,305.300 317.833 C 305.487 318.021,309.200 316.052,309.200 315.766 C 309.200 315.532,309.210 315.528,307.061 316.646 M93.200 316.579 C 93.200 316.689,93.740 317.059,94.400 317.400 C 95.060 317.741,95.600 317.931,95.600 317.821 C 95.600 317.711,95.060 317.341,94.400 317.000 C 93.740 316.659,93.200 316.469,93.200 316.579 M96.000 318.171 C 96.000 318.324,100.065 320.619,107.000 324.380 C 108.479 325.182,109.016 325.363,108.400 324.850 C 107.850 324.392,107.289 324.014,107.154 324.009 C 107.019 324.004,104.531 322.650,101.626 321.000 C 96.422 318.044,96.000 317.832,96.000 318.171 M301.200 319.870 C 299.330 320.881,296.810 322.236,295.600 322.881 C 294.390 323.526,293.220 324.247,293.000 324.484 C 292.485 325.038,303.840 319.018,304.580 318.346 C 305.256 317.731,304.662 317.999,301.200 319.870 M290.900 325.344 C 290.405 325.589,290.000 325.933,290.000 326.109 C 290.000 326.414,290.698 326.103,292.000 325.220 C 292.781 324.689,292.056 324.772,290.900 325.344 M109.600 325.790 C 109.600 325.894,110.185 326.265,110.900 326.614 L 112.200 327.248 111.200 326.433 C 110.237 325.648,109.600 325.392,109.600 325.790 M112.400 327.390 C 112.400 327.494,112.985 327.865,113.700 328.214 L 115.000 328.848 114.000 328.033 C 113.037 327.248,112.400 326.992,112.400 327.390 M286.400 328.033 L 285.400 328.848 286.700 328.214 C 287.415 327.865,288.000 327.494,288.000 327.390 C 288.000 326.992,287.363 327.248,286.400 328.033 M116.800 329.779 C 116.800 329.889,117.340 330.259,118.000 330.600 C 118.660 330.941,119.200 331.131,119.200 331.021 C 119.200 330.911,118.660 330.541,118.000 330.200 C 117.340 329.859,116.800 329.669,116.800 329.779 M282.000 330.433 L 281.000 331.248 282.300 330.614 C 283.015 330.265,283.600 329.894,283.600 329.790 C 283.600 329.392,282.963 329.648,282.000 330.433 M119.600 331.390 C 119.600 331.494,120.185 331.865,120.900 332.214 L 122.200 332.848 121.200 332.033 C 120.237 331.248,119.600 330.992,119.600 331.390 M273.904 334.713 C 271.320 336.158,269.263 337.397,269.332 337.466 C 269.483 337.616,279.200 332.394,279.200 332.162 C 279.200 331.811,278.426 332.183,273.904 334.713 M122.400 332.966 C 122.400 333.235,126.107 335.227,126.282 335.052 C 126.370 334.964,125.600 334.421,124.570 333.846 C 122.663 332.780,122.400 332.673,122.400 332.966 M126.800 335.334 C 126.800 335.473,131.228 338.051,135.300 340.283 C 135.465 340.373,135.600 340.366,135.600 340.266 C 135.600 340.127,131.172 337.549,127.100 335.317 C 126.935 335.227,126.800 335.234,126.800 335.334 M265.133 339.512 C 263.226 340.551,261.516 341.566,261.333 341.768 C 260.937 342.206,268.029 338.477,268.580 337.958 C 269.254 337.323,268.666 337.588,265.133 339.512 M136.000 340.590 C 136.000 340.694,136.585 341.065,137.300 341.414 L 138.600 342.048 137.600 341.233 C 136.637 340.448,136.000 340.192,136.000 340.590 M139.200 342.422 C 140.233 343.126,142.800 344.425,142.800 344.242 C 142.800 344.033,139.205 341.997,138.850 342.006 C 138.712 342.009,138.870 342.196,139.200 342.422 M259.200 342.833 L 258.200 343.648 259.500 343.014 C 260.215 342.665,260.800 342.294,260.800 342.190 C 260.800 341.792,260.163 342.048,259.200 342.833 M254.800 345.233 L 253.800 346.048 255.100 345.414 C 255.815 345.065,256.400 344.694,256.400 344.590 C 256.400 344.192,255.763 344.448,254.800 345.233 M146.000 346.190 C 146.000 346.294,146.585 346.665,147.300 347.014 L 148.600 347.648 147.600 346.833 C 146.637 346.048,146.000 345.792,146.000 346.190 M249.911 347.760 C 247.587 349.141,247.582 349.406,249.900 348.241 C 251.055 347.661,252.000 347.100,252.000 346.993 C 252.000 346.649,251.429 346.858,249.911 347.760 M148.800 347.766 C 148.800 348.035,152.507 350.027,152.682 349.852 C 152.770 349.764,152.000 349.221,150.970 348.646 C 149.063 347.580,148.800 347.473,148.800 347.766 M245.500 350.226 C 244.455 350.770,243.600 351.305,243.600 351.414 C 243.600 351.524,244.500 351.157,245.600 350.600 C 246.700 350.043,247.600 349.500,247.600 349.393 C 247.600 349.129,247.636 349.114,245.500 350.226 M153.200 350.124 C 153.200 350.382,159.688 354.045,159.853 353.880 C 159.925 353.808,158.596 352.951,156.901 351.975 C 153.411 349.965,153.200 349.860,153.200 350.124 M238.800 353.851 C 236.490 355.080,234.420 356.273,234.200 356.502 C 233.752 356.969,242.384 352.490,242.980 351.946 C 243.686 351.303,243.013 351.610,238.800 353.851 M160.600 354.303 C 160.820 354.518,161.900 355.184,163.000 355.783 C 164.100 356.383,164.640 356.572,164.200 356.205 C 163.295 355.450,159.982 353.699,160.600 354.303 M165.600 357.222 C 166.633 357.926,169.200 359.225,169.200 359.042 C 169.200 358.833,165.605 356.797,165.250 356.806 C 165.112 356.809,165.270 356.996,165.600 357.222 M232.000 357.633 L 231.000 358.448 232.300 357.814 C 233.015 357.465,233.600 357.094,233.600 356.990 C 233.600 356.592,232.963 356.848,232.000 357.633 M227.931 359.735 C 224.820 361.476,224.458 361.973,227.400 360.464 C 230.135 359.061,231.179 358.400,230.600 358.439 C 230.380 358.454,229.179 359.037,227.931 359.735 M169.600 359.390 C 169.600 359.494,170.185 359.865,170.900 360.214 L 172.200 360.848 171.200 360.033 C 170.237 359.248,169.600 358.992,169.600 359.390 M172.400 360.990 C 172.400 361.094,172.985 361.465,173.700 361.814 L 175.000 362.448 174.000 361.633 C 173.037 360.848,172.400 360.592,172.400 360.990 M219.131 364.535 C 216.020 366.276,215.658 366.773,218.600 365.264 C 221.335 363.861,222.379 363.200,221.800 363.239 C 221.580 363.254,220.379 363.837,219.131 364.535 M179.600 364.924 C 179.600 365.215,186.100 368.834,186.286 368.647 C 186.376 368.557,185.048 367.700,183.334 366.742 C 179.757 364.743,179.600 364.666,179.600 364.924 M213.861 367.446 C 212.794 368.001,212.002 368.535,212.100 368.633 C 212.287 368.821,216.000 366.852,216.000 366.566 C 216.000 366.332,216.010 366.328,213.861 367.446 M186.800 368.984 C 186.800 369.094,187.520 369.551,188.400 370.000 C 189.280 370.449,190.000 370.726,190.000 370.616 C 190.000 370.506,189.280 370.049,188.400 369.600 C 187.520 369.151,186.800 368.874,186.800 368.984 M209.600 369.800 C 208.610 370.330,207.942 370.772,208.116 370.782 C 208.541 370.806,211.600 369.234,211.600 368.992 C 211.600 368.727,211.617 368.720,209.600 369.800 M191.600 371.330 C 193.075 371.906,196.723 372.590,196.354 372.221 C 196.236 372.103,195.253 371.829,194.169 371.612 C 193.086 371.396,191.750 371.121,191.200 371.001 C 190.650 370.882,190.830 371.030,191.600 371.330 M206.280 371.053 C 206.140 371.193,204.895 371.543,203.513 371.831 L 201.000 372.355 203.164 372.131 C 205.234 371.917,208.485 370.848,207.167 370.816 C 206.818 370.807,206.419 370.914,206.280 371.053 M198.105 372.687 C 198.714 372.779,199.614 372.777,200.105 372.682 C 200.597 372.587,200.100 372.511,199.000 372.514 C 197.900 372.517,197.497 372.595,198.105 372.687 " stroke="none" fill="#3c833c" fill-rule="evenodd"></path></g></svg>